<svg width="50" height="105" viewBox="0 0 50 105" fill="none" xmlns="http://www.w3.org/2000/svg">
<path d="M48.7812 104H25.0156V28.3438L1.67188 35.1641V17.1641L46.6016 1.625H48.7812V104Z" fill="white"/>
<path d="M48.7812 104V105H49.7812V104H48.7812ZM25.0156 104H24.0156V105H25.0156V104ZM25.0156 28.3438H26.0156V27.0098L24.7352 27.3839L25.0156 28.3438ZM1.67188 35.1641H0.671875V36.498L1.95232 36.1239L1.67188 35.1641ZM1.67188 17.1641L1.34502 16.219L0.671875 16.4518V17.1641H1.67188ZM46.6016 1.625V0.625H46.4335L46.2747 0.679928L46.6016 1.625ZM48.7812 1.625H49.7812V0.625H48.7812V1.625ZM48.7812 103H25.0156V105H48.7812V103ZM26.0156 104V28.3438H24.0156V104H26.0156ZM24.7352 27.3839L1.39143 34.2042L1.95232 36.1239L25.2961 29.3036L24.7352 27.3839ZM2.67188 35.1641V17.1641H0.671875V35.1641H2.67188ZM1.99873 18.1091L46.9284 2.57007L46.2747 0.679928L1.34502 16.219L1.99873 18.1091ZM46.6016 2.625H48.7812V0.625H46.6016V2.625ZM47.7812 1.625V104H49.7812V1.625H47.7812Z" fill="black"/>
</svg>
