<svg width="76" height="106" viewBox="0 0 76 106" fill="none" xmlns="http://www.w3.org/2000/svg">
<path d="M74.6953 105H3.25781V89.5312L36.1641 54.9375C44.2734 45.7031 48.3281 38.3672 48.3281 32.9297C48.3281 28.5234 47.3672 25.1719 45.4453 22.875C43.5234 20.5781 40.7344 19.4297 37.0781 19.4297C33.4688 19.4297 30.5391 20.9766 28.2891 24.0703C26.0391 27.1172 24.9141 30.9375 24.9141 35.5312H1.14844C1.14844 29.25 2.71875 23.4609 5.85938 18.1641C9 12.8203 13.3594 8.64844 18.9375 5.64844C24.5156 2.64844 30.75 1.14844 37.6406 1.14844C48.7031 1.14844 57.2109 3.70312 63.1641 8.8125C69.1641 13.9219 72.1641 21.2578 72.1641 30.8203C72.1641 34.8516 71.4141 38.7891 69.9141 42.6328C68.4141 46.4297 66.0703 50.4375 62.8828 54.6562C59.7422 58.8281 54.6562 64.4297 47.625 71.4609L34.4062 86.7188H74.6953V105Z" fill="white"/>
<path d="M74.6953 105V106H75.6953V105H74.6953ZM3.25781 105H2.25781V106H3.25781V105ZM3.25781 89.5312L2.53325 88.842L2.25781 89.1316V89.5312H3.25781ZM36.1641 54.9375L36.8886 55.6267L36.9023 55.6123L36.9155 55.5974L36.1641 54.9375ZM28.2891 24.0703L29.0935 24.6644L29.0978 24.6585L28.2891 24.0703ZM24.9141 35.5312V36.5312H25.9141V35.5312H24.9141ZM1.14844 35.5312H0.148438V36.5312H1.14844V35.5312ZM5.85938 18.1641L6.71955 18.6741L6.7215 18.6708L5.85938 18.1641ZM63.1641 8.8125L62.5128 9.57134L62.5157 9.57385L63.1641 8.8125ZM69.9141 42.6328L70.8441 43.0002L70.8456 42.9964L69.9141 42.6328ZM62.8828 54.6562L62.0849 54.0534L62.0839 54.0548L62.8828 54.6562ZM47.625 71.4609L46.9179 70.7538L46.8926 70.7791L46.8692 70.8061L47.625 71.4609ZM34.4062 86.7188L33.6504 86.0639L32.2168 87.7188H34.4062V86.7188ZM74.6953 86.7188H75.6953V85.7188H74.6953V86.7188ZM74.6953 104H3.25781V106H74.6953V104ZM4.25781 105V89.5312H2.25781V105H4.25781ZM3.98237 90.2205L36.8886 55.6267L35.4395 54.2483L2.53325 88.842L3.98237 90.2205ZM36.9155 55.5974C40.9978 50.9487 44.0881 46.7462 46.1623 42.9935C48.2311 39.2506 49.3281 35.8852 49.3281 32.9297H47.3281C47.3281 35.4117 46.3978 38.433 44.4119 42.026C42.4314 45.6093 39.4397 49.692 35.4127 54.2776L36.9155 55.5974ZM49.3281 32.9297C49.3281 28.3962 48.3416 24.7781 46.2122 22.2333L44.6784 23.5167C46.3928 25.5656 47.3281 28.6507 47.3281 32.9297H49.3281ZM46.2122 22.2333C44.0587 19.6596 40.9588 18.4297 37.0781 18.4297V20.4297C40.51 20.4297 42.9881 21.4967 44.6784 23.5167L46.2122 22.2333ZM37.0781 18.4297C33.127 18.4297 29.9053 20.1478 27.4803 23.4821L29.0978 24.6585C31.1728 21.8053 33.8105 20.4297 37.0781 20.4297V18.4297ZM27.4846 23.4763C25.0825 26.7292 23.9141 30.7702 23.9141 35.5312H25.9141C25.9141 31.1048 26.9956 27.5052 29.0935 24.6644L27.4846 23.4763ZM24.9141 34.5312H1.14844V36.5312H24.9141V34.5312ZM2.14844 35.5312C2.14844 29.4257 3.67236 23.8134 6.71954 18.6741L4.99921 17.6541C1.76514 23.1085 0.148438 29.0743 0.148438 35.5312H2.14844ZM6.7215 18.6708C9.76722 13.4885 13.9906 9.44439 19.4112 6.52914L18.4638 4.76773C12.7281 7.85248 8.23278 12.1521 4.99725 17.6574L6.7215 18.6708ZM19.4112 6.52914C24.8311 3.61421 30.9004 2.14844 37.6406 2.14844V0.148438C30.5996 0.148438 24.2001 1.68266 18.4638 4.76773L19.4112 6.52914ZM37.6406 2.14844C48.5612 2.14844 56.803 4.67086 62.5128 9.57133L63.8153 8.05367C57.6188 2.73539 48.845 0.148438 37.6406 0.148438V2.14844ZM62.5157 9.57385C68.2453 14.4529 71.1641 21.4824 71.1641 30.8203H73.1641C73.1641 21.0332 70.0829 13.3908 63.8124 8.05115L62.5157 9.57385ZM71.1641 30.8203C71.1641 34.7242 70.4384 38.5386 68.9825 42.2693L70.8456 42.9964C72.3898 39.0395 73.1641 34.9789 73.1641 30.8203H71.1641ZM68.984 42.2654C67.5253 45.9577 65.2331 49.8868 62.0849 54.0534L63.6807 55.2591C66.9076 50.9882 69.3028 46.9017 70.8441 43.0002L68.984 42.2654ZM62.0839 54.0548C58.9862 58.1697 53.94 63.7318 46.9179 70.7538L48.3321 72.168C55.3725 65.1276 60.4982 59.4866 63.6817 55.2577L62.0839 54.0548ZM46.8692 70.8061L33.6504 86.0639L35.1621 87.3736L48.3808 72.1157L46.8692 70.8061ZM34.4062 87.7188H74.6953V85.7188H34.4062V87.7188ZM73.6953 86.7188V105H75.6953V86.7188H73.6953Z" fill="black"/>
</svg>
