<svg width="77" height="108" viewBox="0 0 77 108" fill="none" xmlns="http://www.w3.org/2000/svg">
<path d="M25.9141 43.8984H37.0938C45.9531 43.8984 50.3828 39.5625 50.3828 30.8906C50.3828 27.5156 49.3281 24.7734 47.2188 22.6641C45.1094 20.5078 42.1328 19.4297 38.2891 19.4297C35.1484 19.4297 32.4062 20.3438 30.0625 22.1719C27.7656 24 26.6172 26.2734 26.6172 28.9922H2.92188C2.92188 23.6016 4.42188 18.7969 7.42188 14.5781C10.4219 10.3594 14.5703 7.07812 19.8672 4.73438C25.2109 2.34375 31.0703 1.14844 37.4453 1.14844C48.8359 1.14844 57.7891 3.75 64.3047 8.95312C70.8203 14.1562 74.0781 21.3047 74.0781 30.3984C74.0781 34.8047 72.7188 38.9766 70 42.9141C67.3281 46.8047 63.4141 49.9688 58.2578 52.4062C63.6953 54.375 67.9609 57.375 71.0547 61.4062C74.1484 65.3906 75.6953 70.3359 75.6953 76.2422C75.6953 85.3828 72.1797 92.6953 65.1484 98.1797C58.1172 103.664 48.8828 106.406 37.4453 106.406C30.7422 106.406 24.5078 105.141 18.7422 102.609C13.0234 100.031 8.6875 96.4922 5.73438 91.9922C2.78125 87.4453 1.30469 82.2891 1.30469 76.5234H25.1406C25.1406 79.6641 26.4062 82.3828 28.9375 84.6797C31.4688 86.9766 34.5859 88.125 38.2891 88.125C42.4609 88.125 45.7891 86.9766 48.2734 84.6797C50.7578 82.3359 52 79.3594 52 75.75C52 70.5938 50.7109 66.9375 48.1328 64.7812C45.5547 62.625 41.9922 61.5469 37.4453 61.5469H25.9141V43.8984Z" fill="white"/>
<path d="M25.9141 43.8984V42.8984H24.9141V43.8984H25.9141ZM47.2188 22.6641L46.5039 23.3634L46.5116 23.3712L47.2188 22.6641ZM30.0625 22.1719L29.4474 21.3833L29.4398 21.3895L30.0625 22.1719ZM26.6172 28.9922V29.9922H27.6172V28.9922H26.6172ZM2.92188 28.9922H1.92188V29.9922H2.92188V28.9922ZM19.8672 4.73438L20.2718 5.64886L20.2756 5.64719L19.8672 4.73438ZM70 42.9141L69.1771 42.3459L69.1757 42.348L70 42.9141ZM58.2578 52.4062L57.8304 51.5022L55.6588 52.5288L57.9174 53.3465L58.2578 52.4062ZM71.0547 61.4062L70.2614 62.0151L70.2648 62.0195L71.0547 61.4062ZM18.7422 102.609L18.3312 103.521L18.3402 103.525L18.7422 102.609ZM5.73438 91.9922L4.89572 92.5369L4.89833 92.5408L5.73438 91.9922ZM1.30469 76.5234V75.5234H0.304688V76.5234H1.30469ZM25.1406 76.5234H26.1406V75.5234H25.1406V76.5234ZM48.2734 84.6797L48.9523 85.414L48.9597 85.4071L48.2734 84.6797ZM25.9141 61.5469H24.9141V62.5469H25.9141V61.5469ZM25.9141 44.8984H37.0938V42.8984H25.9141V44.8984ZM37.0938 44.8984C41.6723 44.8984 45.2909 43.778 47.7601 41.3611C50.2332 38.9403 51.3828 35.3862 51.3828 30.8906H49.3828C49.3828 35.0669 48.3176 38.0167 46.361 39.9319C44.4005 41.8509 41.3746 42.8984 37.0938 42.8984V44.8984ZM51.3828 30.8906C51.3828 27.2884 50.248 24.2791 47.9259 21.957L46.5116 23.3712C48.4082 25.2678 49.3828 27.7429 49.3828 30.8906H51.3828ZM47.9336 21.9648C45.5879 19.567 42.3241 18.4297 38.2891 18.4297V20.4297C41.9415 20.4297 44.6308 21.4486 46.5039 23.3634L47.9336 21.9648ZM38.2891 18.4297C34.9391 18.4297 31.9773 19.4101 29.4475 21.3834L30.6775 22.9604C32.8352 21.2774 35.3578 20.4297 38.2891 20.4297V18.4297ZM29.4398 21.3895C26.9263 23.3899 25.6172 25.9419 25.6172 28.9922H27.6172C27.6172 26.6049 28.6049 24.6101 30.6852 22.9543L29.4398 21.3895ZM26.6172 27.9922H2.92188V29.9922H26.6172V27.9922ZM3.92188 28.9922C3.92188 23.8001 5.36239 19.1998 8.23683 15.1576L6.60692 13.9986C3.48136 18.3939 1.92188 23.403 1.92188 28.9922H3.92188ZM8.23683 15.1576C11.1206 11.1023 15.1193 7.92873 20.2718 5.64885L19.4626 3.8199C14.0213 6.22752 9.7231 9.61647 6.60692 13.9986L8.23683 15.1576ZM20.2756 5.64719C25.4798 3.319 31.1984 2.14844 37.4453 2.14844V0.148438C30.9422 0.148438 24.9421 1.3685 19.4588 3.82156L20.2756 5.64719ZM37.4453 2.14844C48.6915 2.14844 57.3974 4.71695 63.6807 9.73454L64.9287 8.17171C58.1807 2.78305 48.9803 0.148438 37.4453 0.148438V2.14844ZM63.6807 9.73454C69.9351 14.7291 73.0781 21.5773 73.0781 30.3984H75.0781C75.0781 21.0321 71.7055 13.5834 64.9287 8.17171L63.6807 9.73454ZM73.0781 30.3984C73.0781 34.5841 71.7909 38.5603 69.1771 42.3459L70.8229 43.4823C73.6466 39.3928 75.0781 35.0252 75.0781 30.3984H73.0781ZM69.1757 42.348C66.6229 46.0652 62.8601 49.1245 57.8304 51.5022L58.6852 53.3103C63.968 50.813 68.0334 47.5442 70.8243 43.4802L69.1757 42.348ZM57.9174 53.3465C63.2008 55.2595 67.2993 58.1554 70.2614 62.0151L71.848 60.7974C68.6226 56.5946 64.1898 53.4905 58.5983 51.466L57.9174 53.3465ZM70.2648 62.0195C73.2 65.7997 74.6953 70.5185 74.6953 76.2422H76.6953C76.6953 70.1533 75.0969 64.9816 71.8445 60.793L70.2648 62.0195ZM74.6953 76.2422C74.6953 85.0837 71.3147 92.1018 64.5334 97.3912L65.7635 98.9682C73.0447 93.2888 76.6953 85.6819 76.6953 76.2422H74.6953ZM64.5334 97.3912C57.7222 102.704 48.7237 105.406 37.4453 105.406V107.406C49.042 107.406 58.5121 104.624 65.7635 98.9682L64.5334 97.3912ZM37.4453 105.406C30.8715 105.406 24.775 104.166 19.1442 101.694L18.3402 103.525C24.2406 106.115 30.6129 107.406 37.4453 107.406V105.406ZM19.1532 101.698C13.5785 99.1846 9.40295 95.7598 6.57042 91.4435L4.89833 92.5408C7.97205 97.2246 12.4684 100.878 18.3312 103.521L19.1532 101.698ZM6.57302 91.4475C3.73199 87.0732 2.30469 82.1086 2.30469 76.5234H0.304688C0.304688 82.4695 1.83051 87.8174 4.89573 92.5369L6.57302 91.4475ZM1.30469 77.5234H25.1406V75.5234H1.30469V77.5234ZM24.1406 76.5234C24.1406 79.9729 25.546 82.9526 28.2655 85.4202L29.6095 83.9391C27.2665 81.8131 26.1406 79.3553 26.1406 76.5234H24.1406ZM28.2655 85.4202C30.9968 87.8986 34.36 89.125 38.2891 89.125V87.125C34.8119 87.125 31.9407 86.0545 29.6095 83.9391L28.2655 85.4202ZM38.2891 89.125C42.6511 89.125 46.2425 87.9193 48.9523 85.414L47.5946 83.9454C45.3357 86.0338 42.2708 87.125 38.2891 87.125V89.125ZM48.9597 85.4071C51.6567 82.8627 53 79.6172 53 75.75H51C51 79.1016 49.8589 81.8092 47.5872 83.9523L48.9597 85.4071ZM53 75.75C53 70.457 51.6787 66.4432 48.7744 64.0142L47.4913 65.5483C49.7432 67.4318 51 70.7305 51 75.75H53ZM48.7744 64.0142C45.9616 61.6617 42.1438 60.5469 37.4453 60.5469V62.5469C41.8405 62.5469 45.1478 63.5883 47.4913 65.5483L48.7744 64.0142ZM37.4453 60.5469H25.9141V62.5469H37.4453V60.5469ZM26.9141 61.5469V43.8984H24.9141V61.5469H26.9141Z" fill="black"/>
</svg>
