<svg width="78" height="105" viewBox="0 0 78 105" fill="none" xmlns="http://www.w3.org/2000/svg">
<path d="M65.8359 63.9922H76.2422V82.2734H65.8359V104H42.1406V82.2734H2.55469L1.14844 67.7891L42.1406 1.83594V1.625H65.8359V63.9922ZM23.7188 63.9922H42.1406V32.4922L40.6641 34.8828L23.7188 63.9922Z" fill="white"/>
<path d="M65.8359 63.9922H64.8359V64.9922H65.8359V63.9922ZM76.2422 63.9922H77.2422V62.9922H76.2422V63.9922ZM76.2422 82.2734V83.2734H77.2422V82.2734H76.2422ZM65.8359 82.2734V81.2734H64.8359V82.2734H65.8359ZM65.8359 104V105H66.8359V104H65.8359ZM42.1406 104H41.1406V105H42.1406V104ZM42.1406 82.2734H43.1406V81.2734H42.1406V82.2734ZM2.55469 82.2734L1.55937 82.3701L1.64707 83.2734H2.55469V82.2734ZM1.14844 67.7891L0.299119 67.2612L0.120402 67.5487L0.153117 67.8857L1.14844 67.7891ZM42.1406 1.83594L42.9899 2.36382L43.1406 2.12138V1.83594H42.1406ZM42.1406 1.625V0.625H41.1406V1.625H42.1406ZM65.8359 1.625H66.8359V0.625H65.8359V1.625ZM23.7188 63.9922L22.8545 63.4891L21.9795 64.9922H23.7188V63.9922ZM42.1406 63.9922V64.9922H43.1406V63.9922H42.1406ZM42.1406 32.4922H43.1406V28.9702L41.2898 31.9667L42.1406 32.4922ZM40.6641 34.8828L39.8133 34.3573L39.8064 34.3684L39.7998 34.3797L40.6641 34.8828ZM65.8359 64.9922H76.2422V62.9922H65.8359V64.9922ZM75.2422 63.9922V82.2734H77.2422V63.9922H75.2422ZM76.2422 81.2734H65.8359V83.2734H76.2422V81.2734ZM64.8359 82.2734V104H66.8359V82.2734H64.8359ZM65.8359 103H42.1406V105H65.8359V103ZM43.1406 104V82.2734H41.1406V104H43.1406ZM42.1406 81.2734H2.55469V83.2734H42.1406V81.2734ZM3.55001 82.1768L2.14376 67.6924L0.153117 67.8857L1.55937 82.3701L3.55001 82.1768ZM1.99776 68.3169L42.9899 2.36382L41.2913 1.30806L0.299119 67.2612L1.99776 68.3169ZM43.1406 1.83594V1.625H41.1406V1.83594H43.1406ZM42.1406 2.625H65.8359V0.625H42.1406V2.625ZM64.8359 1.625V63.9922H66.8359V1.625H64.8359ZM23.7188 64.9922H42.1406V62.9922H23.7188V64.9922ZM43.1406 63.9922V32.4922H41.1406V63.9922H43.1406ZM41.2898 31.9667L39.8133 34.3573L41.5149 35.4083L42.9914 33.0177L41.2898 31.9667ZM39.7998 34.3797L22.8545 63.4891L24.583 64.4953L41.5283 35.3859L39.7998 34.3797Z" fill="black"/>
</svg>
