<svg width="75" height="107" viewBox="0 0 75 107" fill="none" xmlns="http://www.w3.org/2000/svg">
<path d="M3.66406 53.9375L9.92188 1.625H69.7578V20.0469H29.1875L26.8672 40.3672C28.5547 39.3828 30.7578 38.5156 33.4766 37.7656C36.2422 37.0156 38.9375 36.6406 41.5625 36.6406C51.7344 36.6406 59.5391 39.6641 64.9766 45.7109C70.4609 51.7109 73.2031 60.1484 73.2031 71.0234C73.2031 77.5859 71.7266 83.5391 68.7734 88.8828C65.8672 94.1797 61.7656 98.2578 56.4688 101.117C51.1719 103.977 44.9141 105.406 37.6953 105.406C31.2734 105.406 25.25 104.094 19.625 101.469C14 98.7969 9.59375 95.1641 6.40625 90.5703C3.21875 85.9297 1.64844 80.7031 1.69531 74.8906H25.4609C25.6953 78.6406 26.8906 81.6172 29.0469 83.8203C31.2031 86.0234 34.0391 87.125 37.5547 87.125C45.5234 87.125 49.5078 81.2188 49.5078 69.4062C49.5078 58.4844 44.6328 53.0234 34.8828 53.0234C29.3516 53.0234 25.2266 54.8047 22.5078 58.3672L3.66406 53.9375Z" fill="white"/>
<path d="M3.66406 53.9375L2.67114 53.8187L2.56496 54.7064L3.43523 54.911L3.66406 53.9375ZM9.92188 1.625V0.625H9.03437L8.92895 1.50622L9.92188 1.625ZM69.7578 1.625H70.7578V0.625H69.7578V1.625ZM69.7578 20.0469V21.0469H70.7578V20.0469H69.7578ZM29.1875 20.0469V19.0469H28.2952L28.194 19.9334L29.1875 20.0469ZM26.8672 40.3672L25.8736 40.2537L25.6472 42.2365L27.3711 41.231L26.8672 40.3672ZM33.4766 37.7656L33.2148 36.8005L33.2106 36.8016L33.4766 37.7656ZM64.9766 45.7109L64.233 46.3796L64.2384 46.3856L64.9766 45.7109ZM68.7734 88.8828L67.8982 88.3991L67.8967 88.4018L68.7734 88.8828ZM19.625 101.469L19.1959 102.372L19.2021 102.375L19.625 101.469ZM6.40625 90.5703L5.58196 91.1365L5.58466 91.1404L6.40625 90.5703ZM1.69531 74.8906V73.8906H0.703344L0.695345 74.8826L1.69531 74.8906ZM25.4609 74.8906L26.459 74.8282L26.4004 73.8906H25.4609V74.8906ZM22.5078 58.3672L22.279 59.3407L22.9097 59.4889L23.3028 58.9739L22.5078 58.3672ZM4.65698 54.0563L10.9148 1.74378L8.92895 1.50622L2.67114 53.8187L4.65698 54.0563ZM9.92188 2.625H69.7578V0.625H9.92188V2.625ZM68.7578 1.625V20.0469H70.7578V1.625H68.7578ZM69.7578 19.0469H29.1875V21.0469H69.7578V19.0469ZM28.194 19.9334L25.8736 40.2537L27.8607 40.4806L30.181 20.1603L28.194 19.9334ZM27.3711 41.231C28.959 40.3047 31.0737 39.4659 33.7425 38.7296L33.2106 36.8016C30.442 37.5654 28.1504 38.4609 26.3633 39.5034L27.3711 41.231ZM33.7383 38.7308C36.4263 38.0018 39.0336 37.6406 41.5625 37.6406V35.6406C38.8414 35.6406 36.058 36.0294 33.2148 36.8005L33.7383 38.7308ZM41.5625 37.6406C51.5272 37.6406 59.0308 40.5945 64.233 46.3796L65.7201 45.0423C60.0473 38.7337 51.9416 35.6406 41.5625 35.6406V37.6406ZM64.2384 46.3856C69.5042 52.1465 72.2031 60.3123 72.2031 71.0234H74.2031C74.2031 59.9846 71.4177 51.2754 65.7147 45.0363L64.2384 46.3856ZM72.2031 71.0234C72.2031 77.4298 70.7634 83.2145 67.8982 88.3991L69.6487 89.3665C72.6897 83.8637 74.2031 77.7421 74.2031 71.0234H72.2031ZM67.8967 88.4018C65.0828 93.5304 61.1204 97.4697 55.9937 100.237L56.9438 101.997C62.4109 99.0459 66.6516 94.8289 69.6501 89.3638L67.8967 88.4018ZM55.9937 100.237C50.8692 103.004 44.7811 104.406 37.6953 104.406V106.406C45.047 106.406 51.4745 104.95 56.9438 101.997L55.9937 100.237ZM37.6953 104.406C31.4144 104.406 25.5358 103.124 20.0479 100.563L19.2021 102.375C24.9642 105.064 31.1325 106.406 37.6953 106.406V104.406ZM20.0541 100.565C14.5684 97.9598 10.3048 94.4347 7.22784 90.0002L5.58466 91.1404C8.88265 95.8934 13.4316 99.634 19.1959 102.372L20.0541 100.565ZM7.23053 90.0041C4.16299 85.5382 2.65 80.5134 2.69528 74.8987L0.695345 74.8826C0.646875 80.8929 2.27451 86.3212 5.58197 91.1365L7.23053 90.0041ZM1.69531 75.8906H25.4609V73.8906H1.69531V75.8906ZM24.4629 74.953C24.7088 78.8879 25.9734 82.1097 28.3322 84.5198L29.7615 83.1208C27.8078 81.1246 26.6818 78.3934 26.459 74.8282L24.4629 74.953ZM28.3322 84.5198C30.7036 86.9427 33.8113 88.125 37.5547 88.125V86.125C34.2668 86.125 31.7027 85.1042 29.7615 83.1208L28.3322 84.5198ZM37.5547 88.125C41.8253 88.125 45.146 86.5194 47.3485 83.2546C49.5037 80.0598 50.5078 75.3935 50.5078 69.4062H48.5078C48.5078 75.2315 47.5197 79.4246 45.6905 82.1361C43.9086 84.7775 41.2528 86.125 37.5547 86.125V88.125ZM50.5078 69.4062C50.5078 63.8174 49.263 59.439 46.5976 56.4532C43.9128 53.4458 39.9432 52.0234 34.8828 52.0234V54.0234C39.5724 54.0234 42.9153 55.3315 45.1056 57.7851C47.3152 60.2603 48.5078 64.0732 48.5078 69.4062H50.5078ZM34.8828 52.0234C29.1209 52.0234 24.6651 53.8921 21.7129 57.7605L23.3028 58.9739C25.788 55.7173 29.5823 54.0234 34.8828 54.0234V52.0234ZM22.7366 57.3937L3.8929 52.964L3.43523 54.911L22.279 59.3407L22.7366 57.3937Z" fill="black"/>
</svg>
