<svg width="77" height="108" viewBox="0 0 77 108" fill="none" xmlns="http://www.w3.org/2000/svg">
<path d="M59.4922 1.14844V19.7812H58.4375C49.5781 19.7812 42.2891 21.9141 36.5703 26.1797C30.8984 30.3984 27.4062 36.2812 26.0938 43.8281C31.4375 38.5781 38.1875 35.9531 46.3438 35.9531C55.2031 35.9531 62.2578 39.1875 67.5078 45.6562C72.7578 52.125 75.3828 60.6094 75.3828 71.1094C75.3828 77.625 73.8359 83.6016 70.7422 89.0391C67.6953 94.4766 63.4062 98.7422 57.875 101.836C52.3906 104.883 46.2969 106.406 39.5938 106.406C32.3281 106.406 25.8359 104.766 20.1172 101.484C14.3984 98.1562 9.94531 93.4219 6.75781 87.2812C3.57031 81.1406 1.92969 74.0625 1.83594 66.0469V56.5547C1.83594 46.0078 4.08594 36.5391 8.58594 28.1484C13.1328 19.7109 19.6016 13.1016 27.9922 8.32031C36.3828 3.53906 45.6875 1.14844 55.9062 1.14844H59.4922ZM38.1172 54.0938C34.9766 54.0938 32.3516 54.8203 30.2422 56.2734C28.1328 57.7266 26.5625 59.5078 25.5312 61.6172V68.7188C25.5312 81.6562 30.0078 88.125 38.9609 88.125C42.5703 88.125 45.5703 86.5078 47.9609 83.2734C50.3984 80.0391 51.6172 75.9844 51.6172 71.1094C51.6172 66.0938 50.375 62.0156 47.8906 58.875C45.4531 55.6875 42.1953 54.0938 38.1172 54.0938Z" fill="white"/>
<path d="M59.4922 1.14844H60.4922V0.148438H59.4922V1.14844ZM59.4922 19.7812V20.7812H60.4922V19.7812H59.4922ZM36.5703 26.1797L37.1671 26.9821L37.1682 26.9813L36.5703 26.1797ZM26.0938 43.8281L25.1085 43.6568L24.5755 46.7216L26.7946 44.5415L26.0938 43.8281ZM70.7422 89.0391L69.873 88.5445L69.8698 88.5502L70.7422 89.0391ZM57.875 101.836L58.3606 102.71L58.3632 102.709L57.875 101.836ZM20.1172 101.484L19.6142 102.349L19.6195 102.352L20.1172 101.484ZM1.83594 66.0469H0.835869L0.836006 66.0586L1.83594 66.0469ZM8.58594 28.1484L7.70562 27.674L7.70468 27.6758L8.58594 28.1484ZM25.5312 61.6172L24.6329 61.178L24.5312 61.3858V61.6172H25.5312ZM47.9609 83.2734L47.1623 82.6716L47.1568 82.679L47.9609 83.2734ZM47.8906 58.875L47.0963 59.4825L47.1012 59.489L47.1063 59.4954L47.8906 58.875ZM58.4922 1.14844V19.7812H60.4922V1.14844H58.4922ZM59.4922 18.7812H58.4375V20.7812H59.4922V18.7812ZM58.4375 18.7812C49.4156 18.7812 41.902 20.9552 35.9724 25.3781L37.1682 26.9813C42.6761 22.8729 49.7406 20.7812 58.4375 20.7812V18.7812ZM35.9735 25.3773C30.0781 29.7624 26.4609 35.8807 25.1085 43.6568L27.079 43.9995C28.3516 36.6818 31.7188 31.0345 37.1671 26.9821L35.9735 25.3773ZM26.7946 44.5415C31.9338 39.4924 38.4241 36.9531 46.3438 36.9531V34.9531C37.9509 34.9531 30.9412 37.6639 25.3929 43.1148L26.7946 44.5415ZM46.3438 36.9531C54.9238 36.9531 61.6846 40.0682 66.7314 46.2864L68.2843 45.0261C62.831 38.3068 55.4825 34.9531 46.3438 34.9531V36.9531ZM66.7314 46.2864C71.8024 52.5347 74.3828 60.7778 74.3828 71.1094H76.3828C76.3828 60.441 73.7132 51.7153 68.2843 45.0261L66.7314 46.2864ZM74.3828 71.1094C74.3828 77.4591 72.8774 83.2641 69.873 88.5445L71.6114 89.5336C74.7945 83.939 76.3828 77.7909 76.3828 71.1094H74.3828ZM69.8698 88.5502C66.9147 93.8239 62.7599 97.9579 57.3868 100.963L58.3632 102.709C64.0526 99.5265 68.4759 95.1292 71.6146 89.5279L69.8698 88.5502ZM57.3894 100.962C52.0637 103.92 46.1389 105.406 39.5938 105.406V107.406C46.4548 107.406 52.7176 105.845 58.3606 102.71L57.3894 100.962ZM39.5938 105.406C32.4845 105.406 26.167 103.803 20.6149 100.617L19.6195 102.352C25.5048 105.729 32.1718 107.406 39.5938 107.406V105.406ZM20.6202 100.62C15.073 97.3918 10.7497 92.801 7.64536 86.8205L5.87026 87.742C9.14092 94.0428 13.7239 98.9207 19.6142 102.349L20.6202 100.62ZM7.64536 86.8205C4.54056 80.8392 2.92808 73.9192 2.83587 66.0352L0.836006 66.0586C0.931294 74.2058 2.60007 81.442 5.87026 87.742L7.64536 86.8205ZM2.83594 66.0469V56.5547H0.835938V66.0469H2.83594ZM2.83594 56.5547C2.83594 46.1546 5.05328 36.8512 9.4672 28.6211L7.70468 27.6758C3.1186 36.2269 0.835938 45.861 0.835938 56.5547H2.83594ZM9.46625 28.6228C13.9235 20.3516 20.2582 13.8784 28.4873 9.18915L27.4971 7.45147C18.9449 12.3248 12.3421 19.0702 7.70562 27.674L9.46625 28.6228ZM28.4873 9.18915C36.7182 4.4989 45.8507 2.14844 55.9062 2.14844V0.148438C45.5243 0.148438 36.0474 2.57923 27.4971 7.45147L28.4873 9.18915ZM55.9062 2.14844H59.4922V0.148438H55.9062V2.14844ZM38.1172 53.0938C34.8203 53.0938 31.9856 53.8581 29.6749 55.4499L30.8095 57.0969C32.7175 55.7825 35.1328 55.0938 38.1172 55.0938V53.0938ZM29.6749 55.4499C27.4372 56.9915 25.7464 58.9004 24.6329 61.178L26.4296 62.0564C27.3786 60.1153 28.8284 58.4617 30.8095 57.0969L29.6749 55.4499ZM24.5312 61.6172V68.7188H26.5312V61.6172H24.5312ZM24.5312 68.7188C24.5312 75.2719 25.6594 80.3643 28.0664 83.8425C30.5195 87.3873 34.2087 89.125 38.9609 89.125V87.125C34.76 87.125 31.7344 85.6283 29.711 82.7044C27.6414 79.7138 26.5312 75.1031 26.5312 68.7188H24.5312ZM38.9609 89.125C42.9271 89.125 46.2108 87.3237 48.7651 83.8678L47.1568 82.679C44.9298 85.6919 42.2135 87.125 38.9609 87.125V89.125ZM48.7595 83.8753C51.3527 80.4344 52.6172 76.1561 52.6172 71.1094H50.6172C50.6172 75.8127 49.4442 79.6438 47.1623 82.6716L48.7595 83.8753ZM52.6172 71.1094C52.6172 65.9266 51.3312 61.6125 48.6749 58.2546L47.1063 59.4954C49.4188 62.4187 50.6172 66.2609 50.6172 71.1094H52.6172ZM48.685 58.2675C46.0547 54.8279 42.5008 53.0938 38.1172 53.0938V55.0938C41.8898 55.0938 44.8516 56.5471 47.0963 59.4825L48.685 58.2675Z" fill="black"/>
</svg>
