<svg width="77" height="105" viewBox="0 0 77 105" fill="none" xmlns="http://www.w3.org/2000/svg">
<path d="M75.4141 14.2812L37.1641 104H12.1328L50.4531 19.9062H1.65625V1.625H75.4141V14.2812Z" fill="white"/>
<path d="M75.4141 14.2812L76.334 14.6734L76.4141 14.4855V14.2812H75.4141ZM37.1641 104V105H37.8248L38.084 104.392L37.1641 104ZM12.1328 104L11.2228 103.585L10.5782 105H12.1328V104ZM50.4531 19.9062L51.3631 20.3209L52.0077 18.9062H50.4531V19.9062ZM1.65625 19.9062H0.65625V20.9062H1.65625V19.9062ZM1.65625 1.625V0.625H0.65625V1.625H1.65625ZM75.4141 1.625H76.4141V0.625H75.4141V1.625ZM74.4942 13.8891L36.2442 103.608L38.084 104.392L76.334 14.6734L74.4942 13.8891ZM37.1641 103H12.1328V105H37.1641V103ZM13.0428 104.415L51.3631 20.3209L49.5431 19.4916L11.2228 103.585L13.0428 104.415ZM50.4531 18.9062H1.65625V20.9062H50.4531V18.9062ZM2.65625 19.9062V1.625H0.65625V19.9062H2.65625ZM1.65625 2.625H75.4141V0.625H1.65625V2.625ZM74.4141 1.625V14.2812H76.4141V1.625H74.4141Z" fill="black"/>
</svg>
