<svg width="242" height="38" viewBox="0 0 242 38" fill="none" xmlns="http://www.w3.org/2000/svg">
<path d="M23.876 30.3594H12.1328L10.082 37H0.926758L13.9639 1.45312H22.0205L35.1553 37H25.9512L23.876 30.3594ZM14.1836 23.7432H21.8252L17.9922 11.4141L14.1836 23.7432ZM37.7676 37V1.45312H50.5361C55.1097 1.45312 58.5846 2.29134 60.9609 3.96777C63.3535 5.64421 64.5498 8.07747 64.5498 11.2676C64.5498 13.1068 64.1266 14.6774 63.2803 15.9795C62.4339 17.2816 61.1888 18.2419 59.5449 18.8604C61.4004 19.3486 62.8245 20.2601 63.8174 21.5947C64.8102 22.9294 65.3066 24.557 65.3066 26.4775C65.3066 29.9606 64.1999 32.5811 61.9863 34.3389C59.7891 36.0804 56.5257 36.9674 52.1963 37H37.7676ZM46.3369 21.8877V30.4082H51.9521C53.4984 30.4082 54.6865 30.0583 55.5166 29.3584C56.3467 28.6423 56.7617 27.6413 56.7617 26.3555C56.7617 23.3932 55.2887 21.904 52.3428 21.8877H46.3369ZM46.3369 16.2725H50.8047C52.6764 16.2562 54.0111 15.9144 54.8086 15.2471C55.6061 14.5798 56.0049 13.5951 56.0049 12.293C56.0049 10.7956 55.5736 9.72135 54.7109 9.07031C53.8483 8.40299 52.4567 8.06934 50.5361 8.06934H46.3369V16.2725ZM100.146 19.959C100.146 23.4258 99.5026 26.4938 98.2168 29.1631C96.931 31.8324 95.0999 33.8913 92.7236 35.3398C90.3636 36.7721 87.6699 37.4883 84.6426 37.4883C81.6152 37.4883 78.9297 36.7965 76.5859 35.4131C74.2422 34.0133 72.4111 32.0195 71.0928 29.4316C69.7907 26.8438 69.1071 23.8734 69.042 20.5205V18.5186C69.042 15.0355 69.6768 11.9674 70.9463 9.31445C72.2321 6.64518 74.0632 4.58626 76.4395 3.1377C78.832 1.68913 81.5501 0.964844 84.5938 0.964844C87.6048 0.964844 90.2904 1.68099 92.6504 3.11328C95.0104 4.54557 96.8415 6.58822 98.1436 9.24121C99.4619 11.8779 100.129 14.9053 100.146 18.3232V19.959ZM91.4297 18.4697C91.4297 14.9378 90.8356 12.2604 89.6475 10.4375C88.4756 8.59831 86.791 7.67871 84.5938 7.67871C80.2969 7.67871 78.0264 10.9014 77.7822 17.3467L77.7578 19.959C77.7578 23.4421 78.3356 26.1195 79.4912 27.9912C80.6468 29.863 82.3639 30.7988 84.6426 30.7988C86.8073 30.7988 88.4756 29.8792 89.6475 28.04C90.8193 26.2008 91.4134 23.556 91.4297 20.1055V18.4697ZM132.445 1.45312V24.7197C132.445 27.3564 131.884 29.6432 130.761 31.5801C129.638 33.5007 128.026 34.9655 125.927 35.9746C123.827 36.9837 121.345 37.4883 118.48 37.4883C114.151 37.4883 110.741 36.3652 108.251 34.1191C105.761 31.873 104.491 28.7969 104.442 24.8906V1.45312H113.061V25.0615C113.158 28.9515 114.965 30.8965 118.48 30.8965C120.255 30.8965 121.597 30.4082 122.509 29.4316C123.42 28.4551 123.876 26.8682 123.876 24.6709V1.45312H132.445ZM165.722 8.06934H155.053V37H146.483V8.06934H136.01V1.45312H165.722V8.06934ZM208.227 1.45312V24.7197C208.227 27.3564 207.665 29.6432 206.542 31.5801C205.419 33.5007 203.808 34.9655 201.708 35.9746C199.608 36.9837 197.126 37.4883 194.262 37.4883C189.932 37.4883 186.522 36.3652 184.032 34.1191C181.542 31.873 180.272 28.7969 180.224 24.8906V1.45312H188.842V25.0615C188.939 28.9515 190.746 30.8965 194.262 30.8965C196.036 30.8965 197.379 30.4082 198.29 29.4316C199.201 28.4551 199.657 26.8682 199.657 24.6709V1.45312H208.227ZM231.933 27.5518C231.933 26.2985 231.485 25.3219 230.59 24.6221C229.711 23.9222 228.157 23.1979 225.927 22.4492C223.697 21.7005 221.874 20.9762 220.458 20.2764C215.852 18.014 213.549 14.9053 213.549 10.9502C213.549 8.98079 214.118 7.2474 215.258 5.75C216.413 4.23633 218.041 3.06445 220.141 2.23438C222.24 1.38802 224.6 0.964844 227.221 0.964844C229.776 0.964844 232.063 1.42057 234.081 2.33203C236.116 3.24349 237.694 4.54557 238.817 6.23828C239.94 7.91471 240.502 9.83529 240.502 12H231.957C231.957 10.5514 231.509 9.42839 230.614 8.63086C229.735 7.83333 228.539 7.43457 227.025 7.43457C225.495 7.43457 224.283 7.77637 223.388 8.45996C222.509 9.12728 222.069 9.98177 222.069 11.0234C222.069 11.9349 222.558 12.765 223.534 13.5137C224.511 14.2461 226.228 15.0111 228.686 15.8086C231.143 16.5898 233.161 17.4362 234.74 18.3477C238.581 20.5612 240.502 23.613 240.502 27.5029C240.502 30.6117 239.33 33.0531 236.986 34.8271C234.643 36.6012 231.428 37.4883 227.343 37.4883C224.462 37.4883 221.85 36.9756 219.506 35.9502C217.178 34.9085 215.421 33.4925 214.232 31.7021C213.061 29.8955 212.475 27.8203 212.475 25.4766H221.068C221.068 27.3809 221.557 28.7887 222.533 29.7002C223.526 30.5954 225.129 31.043 227.343 31.043C228.759 31.043 229.874 30.7419 230.688 30.1396C231.518 29.5212 231.933 28.6585 231.933 27.5518Z" fill="white"/>
<path d="M23.876 30.3594L24.3532 30.2102L24.2436 29.8594H23.876V30.3594ZM12.1328 30.3594V29.8594H11.7639L11.6551 30.2118L12.1328 30.3594ZM10.082 37V37.5H10.4509L10.5598 37.1475L10.082 37ZM0.926758 37L0.457334 36.8278L0.210811 37.5H0.926758V37ZM13.9639 1.45312V0.953125H13.6147L13.4944 1.28096L13.9639 1.45312ZM22.0205 1.45312L22.4895 1.27982L22.3688 0.953125H22.0205V1.45312ZM35.1553 37V37.5H35.8731L35.6243 36.8267L35.1553 37ZM25.9512 37L25.4739 37.1491L25.5836 37.5H25.9512V37ZM14.1836 23.7432L13.7059 23.5956L13.5058 24.2432H14.1836V23.7432ZM21.8252 23.7432V24.2432H22.5042L22.3027 23.5947L21.8252 23.7432ZM17.9922 11.4141L18.4696 11.2656L17.9907 9.72494L17.5145 11.2665L17.9922 11.4141ZM23.876 29.8594H12.1328V30.8594H23.876V29.8594ZM11.6551 30.2118L9.60429 36.8525L10.5598 37.1475L12.6105 30.5069L11.6551 30.2118ZM10.082 36.5H0.926758V37.5H10.082V36.5ZM1.39618 37.1722L14.4333 1.62529L13.4944 1.28096L0.457334 36.8278L1.39618 37.1722ZM13.9639 1.95312H22.0205V0.953125H13.9639V1.95312ZM21.5515 1.62643L34.6863 37.1733L35.6243 36.8267L22.4895 1.27982L21.5515 1.62643ZM35.1553 36.5H25.9512V37.5H35.1553V36.5ZM26.4284 36.8509L24.3532 30.2102L23.3987 30.5085L25.4739 37.1491L26.4284 36.8509ZM14.1836 24.2432H21.8252V23.2432H14.1836V24.2432ZM22.3027 23.5947L18.4696 11.2656L17.5147 11.5625L21.3477 23.8916L22.3027 23.5947ZM17.5145 11.2665L13.7059 23.5956L14.6613 23.8907L18.4699 11.5616L17.5145 11.2665ZM37.7676 37H37.2676V37.5H37.7676V37ZM37.7676 1.45312V0.953125H37.2676V1.45312H37.7676ZM60.9609 3.96777L60.6727 4.37634L60.674 4.37726L60.9609 3.96777ZM59.5449 18.8604L59.3689 18.3924L57.9008 18.9447L59.4177 19.3439L59.5449 18.8604ZM63.8174 21.5947L64.2186 21.2963L63.8174 21.5947ZM61.9863 34.3389L62.2969 34.7307L62.2973 34.7304L61.9863 34.3389ZM52.1963 37V37.5L52.2 37.5L52.1963 37ZM46.3369 21.8877V21.3877H45.8369V21.8877H46.3369ZM46.3369 30.4082H45.8369V30.9082H46.3369V30.4082ZM55.5166 29.3584L55.8389 29.7407L55.8432 29.737L55.5166 29.3584ZM52.3428 21.8877L52.3455 21.3877H52.3428V21.8877ZM46.3369 16.2725H45.8369V16.7725H46.3369V16.2725ZM50.8047 16.2725V16.7725L50.809 16.7724L50.8047 16.2725ZM54.7109 9.07031L54.405 9.46582L54.4097 9.46941L54.7109 9.07031ZM46.3369 8.06934V7.56934H45.8369V8.06934H46.3369ZM38.2676 37V1.45312H37.2676V37H38.2676ZM37.7676 1.95312H50.5361V0.953125H37.7676V1.95312ZM50.5361 1.95312C55.0612 1.95312 58.4165 2.78465 60.6727 4.37634L61.2492 3.55921C58.7527 1.79804 55.1582 0.953125 50.5361 0.953125V1.95312ZM60.674 4.37726C62.9193 5.95047 64.0498 8.22299 64.0498 11.2676H65.0498C65.0498 7.93196 63.7878 5.33795 61.2479 3.55829L60.674 4.37726ZM64.0498 11.2676C64.0498 13.0282 63.6456 14.5 62.8611 15.707L63.6995 16.252C64.6076 14.8548 65.0498 13.1854 65.0498 11.2676H64.0498ZM62.8611 15.707C62.0803 16.9081 60.9266 17.8063 59.3689 18.3924L59.721 19.3283C61.451 18.6774 62.7875 17.655 63.6995 16.252L62.8611 15.707ZM59.4177 19.3439C61.1811 19.808 62.5012 20.6631 63.4162 21.8932L64.2186 21.2963C63.1479 19.857 61.6196 18.8893 59.6722 18.3768L59.4177 19.3439ZM63.4162 21.8932C64.3353 23.1286 64.8066 24.6472 64.8066 26.4775H65.8066C65.8066 24.4667 65.2852 22.7301 64.2186 21.2963L63.4162 21.8932ZM64.8066 26.4775C64.8066 29.8472 63.7419 32.3062 61.6754 33.9473L62.2973 34.7304C64.6578 32.8559 65.8066 30.0741 65.8066 26.4775H64.8066ZM61.6758 33.947C59.6021 35.5906 56.4678 36.4679 52.1925 36.5L52.2 37.5C56.5837 37.467 59.9761 36.5702 62.2969 34.7307L61.6758 33.947ZM52.1963 36.5H37.7676V37.5H52.1963V36.5ZM45.8369 21.8877V30.4082H46.8369V21.8877H45.8369ZM46.3369 30.9082H51.9521V29.9082H46.3369V30.9082ZM51.9521 30.9082C53.5671 30.9082 54.8871 30.5432 55.8389 29.7407L55.1943 28.9761C54.486 29.5733 53.4296 29.9082 51.9521 29.9082V30.9082ZM55.8432 29.737C56.8028 28.9091 57.2617 27.7589 57.2617 26.3555H56.2617C56.2617 27.5236 55.8906 28.3754 55.19 28.9798L55.8432 29.737ZM57.2617 26.3555C57.2617 24.7977 56.8741 23.5364 56.0125 22.6652C55.1503 21.7935 53.8965 21.3963 52.3455 21.3877L52.34 22.3877C53.735 22.3954 54.6907 22.7509 55.3015 23.3685C55.9128 23.9865 56.2617 24.951 56.2617 26.3555H57.2617ZM52.3428 21.3877H46.3369V22.3877H52.3428V21.3877ZM46.3369 16.7725H50.8047V15.7725H46.3369V16.7725ZM50.809 16.7724C52.7142 16.7559 54.1957 16.4119 55.1295 15.6305L54.4877 14.8636C53.8265 15.4169 52.6387 15.7565 50.8003 15.7725L50.809 16.7724ZM55.1295 15.6305C56.0683 14.8449 56.5049 13.7025 56.5049 12.293H55.5049C55.5049 13.4876 55.1439 14.3146 54.4877 14.8636L55.1295 15.6305ZM56.5049 12.293C56.5049 10.7033 56.0438 9.44984 55.0121 8.67122L54.4097 9.46941C55.1033 9.99286 55.5049 10.8878 55.5049 12.293H56.5049ZM55.0169 8.67483C54.0216 7.9049 52.4923 7.56934 50.5361 7.56934V8.56934C52.4211 8.56934 53.675 8.90109 54.405 9.46579L55.0169 8.67483ZM50.5361 7.56934H46.3369V8.56934H50.5361V7.56934ZM45.8369 8.06934V16.2725H46.8369V8.06934H45.8369ZM98.2168 29.1631L97.7663 28.9461L98.2168 29.1631ZM92.7236 35.3398L92.983 35.7673L92.9839 35.7668L92.7236 35.3398ZM76.5859 35.4131L76.3296 35.8424L76.3318 35.8437L76.5859 35.4131ZM71.0928 29.4316L70.6461 29.6564L70.6473 29.6586L71.0928 29.4316ZM69.042 20.5205H68.5419L68.5421 20.5302L69.042 20.5205ZM70.9463 9.31445L70.4958 9.09746L70.4953 9.09863L70.9463 9.31445ZM76.4395 3.1377L76.1805 2.70998L76.1792 2.71077L76.4395 3.1377ZM92.6504 3.11328L92.391 3.54072L92.6504 3.11328ZM98.1436 9.24121L97.6947 9.46151L97.6963 9.46482L98.1436 9.24121ZM100.146 18.3232H100.646L100.646 18.3209L100.146 18.3232ZM89.6475 10.4375L89.2258 10.7062L89.2286 10.7105L89.6475 10.4375ZM77.7822 17.3467L77.2826 17.3278L77.2823 17.3349L77.2822 17.342L77.7822 17.3467ZM77.7578 19.959L77.2578 19.9543V19.959H77.7578ZM79.4912 27.9912L79.0658 28.2539L79.4912 27.9912ZM89.6475 28.04L89.2258 27.7714L89.6475 28.04ZM91.4297 20.1055L91.9297 20.1078V20.1055H91.4297ZM99.6455 19.959C99.6455 23.3634 99.0144 26.3551 97.7663 28.9461L98.6673 29.3801C99.9908 26.6325 100.646 23.4882 100.646 19.959H99.6455ZM97.7663 28.9461C96.5195 31.5344 94.752 33.5178 92.4634 34.9129L92.9839 35.7668C95.4479 34.2647 97.3424 32.1303 98.6673 29.3801L97.7663 28.9461ZM92.4642 34.9124C90.1898 36.2927 87.5876 36.9883 84.6426 36.9883V37.9883C87.7523 37.9883 90.5374 37.2516 92.983 35.7673L92.4642 34.9124ZM84.6426 36.9883C81.6943 36.9883 79.0984 36.3156 76.8401 34.9825L76.3318 35.8437C78.7609 37.2775 81.5361 37.9883 84.6426 37.9883V36.9883ZM76.8423 34.9838C74.5846 33.6355 72.8168 31.7143 71.5383 29.2047L70.6473 29.6586C72.0055 32.3248 73.8997 34.3912 76.3296 35.8424L76.8423 34.9838ZM71.5394 29.2069C70.2759 26.6956 69.6058 23.8007 69.5419 20.5108L68.5421 20.5302C68.6084 23.9461 69.3055 26.9919 70.6461 29.6564L71.5394 29.2069ZM69.542 20.5205V18.5186H68.542V20.5205H69.542ZM69.542 18.5186C69.542 15.0965 70.1654 12.1046 71.3973 9.53028L70.4953 9.09863C69.1881 11.8303 68.542 14.9744 68.542 18.5186H69.542ZM71.3968 9.53144C72.6436 6.94315 74.4111 4.95972 76.6997 3.56462L76.1792 2.71077C73.7152 4.2128 71.8206 6.34722 70.4958 9.09746L71.3968 9.53144ZM76.6984 3.56541C79.0061 2.16827 81.6331 1.46484 84.5938 1.46484V0.464844C81.4672 0.464844 78.658 1.20999 76.1805 2.70998L76.6984 3.56541ZM84.5938 1.46484C87.5219 1.46484 90.1162 2.16016 92.391 3.54072L92.9098 2.68584C90.4645 1.20182 87.6877 0.464844 84.5938 0.464844V1.46484ZM92.391 3.54072C94.6636 4.91994 96.4316 6.88792 97.6947 9.46151L98.5924 9.02091C97.2514 6.28852 95.3573 4.1712 92.9098 2.68584L92.391 3.54072ZM97.6963 9.46482C98.9753 12.0227 99.6295 14.9722 99.6455 18.3256L100.646 18.3209C100.629 14.8383 99.9486 11.7332 98.5908 9.0176L97.6963 9.46482ZM99.6455 18.3232V19.959H100.646V18.3232H99.6455ZM91.9297 18.4697C91.9297 14.8957 91.331 12.1048 90.0663 10.1645L89.2286 10.7105C90.3402 12.4161 90.9297 14.98 90.9297 18.4697H91.9297ZM90.0691 10.1688C88.8046 8.18422 86.9603 7.17871 84.5938 7.17871V8.17871C86.6217 8.17871 88.1466 9.01239 89.2258 10.7062L90.0691 10.1688ZM84.5938 7.17871C82.2998 7.17871 80.4978 8.05005 79.2595 9.80773C78.0434 11.5337 77.4062 14.064 77.2826 17.3278L78.2819 17.3656C78.4024 14.184 79.0225 11.8804 80.077 10.3837C81.1091 8.9187 82.5908 8.17871 84.5938 8.17871V7.17871ZM77.2822 17.342L77.2578 19.9543L78.2578 19.9637L78.2822 17.3514L77.2822 17.342ZM77.2578 19.959C77.2578 23.4855 77.8408 26.2697 79.0658 28.2539L79.9167 27.7285C78.8305 25.9692 78.2578 23.3986 78.2578 19.959H77.2578ZM79.0658 28.2539C80.3163 30.2795 82.1981 31.2988 84.6426 31.2988V30.2988C82.5297 30.2988 80.9773 29.4464 79.9167 27.7285L79.0658 28.2539ZM84.6426 31.2988C86.9797 31.2988 88.8063 30.2907 90.0691 28.3087L89.2258 27.7714C88.1449 29.4678 86.6349 30.2988 84.6426 30.2988V31.2988ZM90.0691 28.3087C91.3132 26.3562 91.9132 23.6025 91.9297 20.1078L90.9297 20.1031C90.9136 23.5094 90.3254 26.0455 89.2258 27.7714L90.0691 28.3087ZM91.9297 20.1055V18.4697H90.9297V20.1055H91.9297ZM132.445 1.45312H132.945V0.953125H132.445V1.45312ZM130.761 31.5801L131.192 31.8325L131.193 31.8309L130.761 31.5801ZM104.442 24.8906H103.942L103.942 24.8969L104.442 24.8906ZM104.442 1.45312V0.953125H103.942V1.45312H104.442ZM113.061 1.45312H113.561V0.953125H113.061V1.45312ZM113.061 25.0615H112.56L112.561 25.0741L113.061 25.0615ZM123.876 1.45312V0.953125H123.376V1.45312H123.876ZM131.945 1.45312V24.7197H132.945V1.45312H131.945ZM131.945 24.7197C131.945 27.2841 131.4 29.4812 130.328 31.3293L131.193 31.8309C132.368 29.8053 132.945 27.4288 132.945 24.7197H131.945ZM130.329 31.3277C129.259 33.158 127.724 34.5559 125.71 35.524L126.143 36.4253C128.328 35.3751 130.017 33.8433 131.192 31.8325L130.329 31.3277ZM125.71 35.524C123.692 36.494 121.287 36.9883 118.48 36.9883V37.9883C121.403 37.9883 123.962 37.4734 126.143 36.4253L125.71 35.524ZM118.48 36.9883C114.238 36.9883 110.96 35.8892 108.586 33.7479L107.916 34.4904C110.522 36.8412 114.064 37.9883 118.48 37.9883V36.9883ZM108.586 33.7479C106.216 31.6107 104.99 28.6764 104.942 24.8844L103.942 24.8969C103.993 28.9174 105.305 32.1354 107.916 34.4904L108.586 33.7479ZM104.942 24.8906V1.45312H103.942V24.8906H104.942ZM104.442 1.95312H113.061V0.953125H104.442V1.95312ZM112.561 1.45312V25.0615H113.561V1.45312H112.561ZM112.561 25.0741C112.611 27.0853 113.105 28.6825 114.122 29.778C115.148 30.8825 116.631 31.3965 118.48 31.3965V30.3965C116.814 30.3965 115.636 29.938 114.855 29.0975C114.066 28.248 113.608 26.9277 113.56 25.049L112.561 25.0741ZM118.48 31.3965C120.346 31.3965 121.84 30.8809 122.874 29.7728L122.143 29.0905C121.355 29.9355 120.164 30.3965 118.48 30.3965V31.3965ZM122.874 29.7728C123.913 28.6596 124.376 26.9179 124.376 24.6709H123.376C123.376 26.8184 122.927 28.2505 122.143 29.0905L122.874 29.7728ZM124.376 24.6709V1.45312H123.376V24.6709H124.376ZM123.876 1.95312H132.445V0.953125H123.876V1.95312ZM165.722 8.06934V8.56934H166.222V8.06934H165.722ZM155.053 8.06934V7.56934H154.553V8.06934H155.053ZM155.053 37V37.5H155.553V37H155.053ZM146.483 37H145.983V37.5H146.483V37ZM146.483 8.06934H146.983V7.56934H146.483V8.06934ZM136.01 8.06934H135.51V8.56934H136.01V8.06934ZM136.01 1.45312V0.953125H135.51V1.45312H136.01ZM165.722 1.45312H166.222V0.953125H165.722V1.45312ZM165.722 7.56934H155.053V8.56934H165.722V7.56934ZM154.553 8.06934V37H155.553V8.06934H154.553ZM155.053 36.5H146.483V37.5H155.053V36.5ZM146.983 37V8.06934H145.983V37H146.983ZM146.483 7.56934H136.01V8.56934H146.483V7.56934ZM136.51 8.06934V1.45312H135.51V8.06934H136.51ZM136.01 1.95312H165.722V0.953125H136.01V1.95312ZM165.222 1.45312V8.06934H166.222V1.45312H165.222ZM208.227 1.45312H208.727V0.953125H208.227V1.45312ZM206.542 31.5801L206.974 31.8325L206.975 31.8309L206.542 31.5801ZM180.224 24.8906H179.724L179.724 24.8969L180.224 24.8906ZM180.224 1.45312V0.953125H179.724V1.45312H180.224ZM188.842 1.45312H189.342V0.953125H188.842V1.45312ZM188.842 25.0615H188.342L188.342 25.0741L188.842 25.0615ZM199.657 1.45312V0.953125H199.157V1.45312H199.657ZM207.727 1.45312V24.7197H208.727V1.45312H207.727ZM207.727 24.7197C207.727 27.2841 207.181 29.4812 206.109 31.3293L206.975 31.8309C208.149 29.8053 208.727 27.4288 208.727 24.7197H207.727ZM206.11 31.3277C205.04 33.158 203.506 34.5559 201.491 35.524L201.925 36.4253C204.11 35.3751 205.798 33.8433 206.974 31.8325L206.11 31.3277ZM201.491 35.524C199.473 36.494 197.068 36.9883 194.262 36.9883V37.9883C197.184 37.9883 199.744 37.4734 201.925 36.4253L201.491 35.524ZM194.262 36.9883C190.019 36.9883 186.741 35.8892 184.367 33.7479L183.697 34.4904C186.304 36.8412 189.846 37.9883 194.262 37.9883V36.9883ZM184.367 33.7479C181.998 31.6107 180.771 28.6764 180.724 24.8844L179.724 24.8969C179.774 28.9174 181.086 32.1354 183.697 34.4904L184.367 33.7479ZM180.724 24.8906V1.45312H179.724V24.8906H180.724ZM180.224 1.95312H188.842V0.953125H180.224V1.95312ZM188.342 1.45312V25.0615H189.342V1.45312H188.342ZM188.342 25.0741C188.392 27.0853 188.886 28.6825 189.904 29.778C190.93 30.8825 192.412 31.3965 194.262 31.3965V30.3965C192.596 30.3965 191.417 29.938 190.636 29.0975C189.847 28.248 189.389 26.9277 189.342 25.049L188.342 25.0741ZM194.262 31.3965C196.127 31.3965 197.621 30.8809 198.656 29.7728L197.925 29.0905C197.136 29.9355 195.945 30.3965 194.262 30.3965V31.3965ZM198.656 29.7728C199.695 28.6596 200.157 26.9179 200.157 24.6709H199.157C199.157 26.8184 198.708 28.2505 197.925 29.0905L198.656 29.7728ZM200.157 24.6709V1.45312H199.157V24.6709H200.157ZM199.657 1.95312H208.227V0.953125H199.657V1.95312ZM230.59 24.6221L230.278 25.0132L230.282 25.016L230.59 24.6221ZM225.927 22.4492L225.768 22.9232L225.927 22.4492ZM220.458 20.2764L220.68 19.8281L220.678 19.8276L220.458 20.2764ZM215.258 5.75L214.86 5.44659L214.86 5.44724L215.258 5.75ZM220.141 2.23438L220.324 2.69937L220.328 2.69812L220.141 2.23438ZM234.081 2.33203L233.875 2.78772L233.877 2.78833L234.081 2.33203ZM238.817 6.23828L238.401 6.51471L238.402 6.51656L238.817 6.23828ZM240.502 12V12.5H241.002V12H240.502ZM231.957 12H231.457V12.5H231.957V12ZM230.614 8.63086L230.278 9.00116L230.282 9.00419L230.614 8.63086ZM223.388 8.45996L223.69 8.85818L223.691 8.85735L223.388 8.45996ZM223.534 13.5137L223.23 13.9105L223.234 13.9137L223.534 13.5137ZM228.686 15.8086L228.531 16.2842L228.534 16.2851L228.686 15.8086ZM234.74 18.3477L234.49 18.7807L234.491 18.7809L234.74 18.3477ZM219.506 35.9502L219.302 36.4066L219.305 36.4083L219.506 35.9502ZM214.232 31.7021L213.813 31.9743L213.816 31.9786L214.232 31.7021ZM212.475 25.4766V24.9766H211.975V25.4766H212.475ZM221.068 25.4766H221.568V24.9766H221.068V25.4766ZM222.533 29.7002L222.192 30.0658L222.198 30.0715L222.533 29.7002ZM230.688 30.1396L230.985 30.5416L230.986 30.5406L230.688 30.1396ZM232.433 27.5518C232.433 26.1628 231.928 25.0334 230.898 24.2282L230.282 25.016C231.042 25.6105 231.433 26.4342 231.433 27.5518H232.433ZM230.901 24.2309C229.95 23.4732 228.324 22.7267 226.086 21.9752L225.768 22.9232C227.989 23.6691 229.472 24.3712 230.278 25.0132L230.901 24.2309ZM226.086 21.9752C223.868 21.2306 222.068 20.5145 220.68 19.8281L220.236 20.7246C221.68 21.438 223.526 22.1705 225.768 22.9232L226.086 21.9752ZM220.678 19.8276C216.183 17.6196 214.049 14.6555 214.049 10.9502H213.049C213.049 15.155 215.521 18.4084 220.238 20.7252L220.678 19.8276ZM214.049 10.9502C214.049 9.08469 214.586 7.45886 215.656 6.05276L214.86 5.44724C213.651 7.03593 213.049 8.8769 213.049 10.9502H214.049ZM215.655 6.05341C216.746 4.62444 218.294 3.50226 220.324 2.69936L219.957 1.76939C217.788 2.62665 216.081 3.84822 214.86 5.44659L215.655 6.05341ZM220.328 2.69812C222.359 1.87918 224.654 1.46484 227.221 1.46484V0.464844C224.546 0.464844 222.121 0.896866 219.954 1.77063L220.328 2.69812ZM227.221 1.46484C229.716 1.46484 231.931 1.90963 233.875 2.78772L234.287 1.87635C232.195 0.931515 229.836 0.464844 227.221 0.464844V1.46484ZM233.877 2.78833C235.834 3.66502 237.335 4.90843 238.401 6.51471L239.234 5.96186C238.054 4.18272 236.398 2.82196 234.285 1.87573L233.877 2.78833ZM238.402 6.51656C239.466 8.1046 240.002 9.92681 240.002 12H241.002C241.002 9.74376 240.415 7.72483 239.233 5.96L238.402 6.51656ZM240.502 11.5H231.957V12.5H240.502V11.5ZM232.457 12C232.457 10.4411 231.97 9.16949 230.947 8.25753L230.282 9.00419C231.048 9.68728 231.457 10.6617 231.457 12H232.457ZM230.95 8.26058C229.956 7.35851 228.628 6.93457 227.025 6.93457V7.93457C228.45 7.93457 229.515 8.30815 230.278 9.00114L230.95 8.26058ZM227.025 6.93457C225.425 6.93457 224.093 7.29217 223.084 8.06258L223.691 8.85735C224.473 8.26056 225.566 7.93457 227.025 7.93457V6.93457ZM223.085 8.06174C222.091 8.81706 221.569 9.81493 221.569 11.0234H222.569C222.569 10.1486 222.927 9.4375 223.69 8.85818L223.085 8.06174ZM221.569 11.0234C221.569 12.1409 222.176 13.1028 223.23 13.9105L223.838 13.1169C222.939 12.4272 222.569 11.7289 222.569 11.0234H221.569ZM223.234 13.9137C224.281 14.6989 226.066 15.4843 228.531 16.2842L228.84 15.333C226.389 14.5378 224.74 13.7932 223.834 13.1137L223.234 13.9137ZM228.534 16.2851C230.97 17.0595 232.953 17.8929 234.49 18.7807L234.99 17.9146C233.37 16.9795 231.316 16.1201 228.837 15.3321L228.534 16.2851ZM234.491 18.7809C238.203 20.9201 240.002 23.8198 240.002 27.5029H241.002C241.002 23.4061 238.96 20.2023 234.99 17.9144L234.491 18.7809ZM240.002 27.5029C240.002 30.4656 238.895 32.7551 236.685 34.4285L237.288 35.2258C239.765 33.351 241.002 30.7578 241.002 27.5029H240.002ZM236.685 34.4285C234.456 36.1155 231.361 36.9883 227.343 36.9883V37.9883C231.495 37.9883 234.829 37.087 237.288 35.2258L236.685 34.4285ZM227.343 36.9883C224.522 36.9883 221.979 36.4866 219.706 35.4921L219.305 36.4083C221.72 37.4646 224.402 37.9883 227.343 37.9883V36.9883ZM219.71 35.4938C217.453 34.4835 215.776 33.1235 214.649 31.4257L213.816 31.9786C215.065 33.8615 216.904 35.3336 219.302 36.4066L219.71 35.4938ZM214.652 31.4301C213.537 29.7116 212.975 27.7326 212.975 25.4766H211.975C211.975 27.908 212.584 30.0794 213.813 31.9742L214.652 31.4301ZM212.475 25.9766H221.068V24.9766H212.475V25.9766ZM220.568 25.4766C220.568 27.4594 221.077 29.0253 222.192 30.0657L222.874 29.3347C222.036 28.5522 221.568 27.3024 221.568 25.4766H220.568ZM222.198 30.0715C223.327 31.0892 225.081 31.543 227.343 31.543V30.543C225.177 30.543 223.725 30.1016 222.868 29.3288L222.198 30.0715ZM227.343 31.543C228.824 31.543 230.057 31.2284 230.985 30.5416L230.39 29.7377C229.691 30.2553 228.693 30.543 227.343 30.543V31.543ZM230.986 30.5406C231.953 29.8204 232.433 28.8037 232.433 27.5518H231.433C231.433 28.5133 231.082 29.2219 230.389 29.7387L230.986 30.5406Z" fill="#DBDBDB"/>
</svg>
