<svg width="26" height="26" viewBox="0 0 26 26" fill="none" xmlns="http://www.w3.org/2000/svg">
<path d="M3.4 0.400024C1.75 0.400024 0.400002 1.75002 0.400002 3.40002V22.6C0.400002 24.25 1.75 25.6 3.4 25.6H13.4992C13.5648 25.6117 13.6305 25.6117 13.6961 25.6H17.0992C17.1648 25.6117 17.2305 25.6117 17.2961 25.6H22.6C24.25 25.6 25.6 24.25 25.6 22.6V3.40002C25.6 1.75002 24.25 0.400024 22.6 0.400024H3.4ZM3.4 1.60002H22.6C23.6008 1.60002 24.4 2.39924 24.4 3.40002V22.6C24.4 23.6008 23.6008 24.4 22.6 24.4H17.8V16H20.0922L20.9336 11.8H17.8V10.6C17.8 10.2649 17.8328 10.2391 17.943 10.1664C18.0555 10.0938 18.4023 10 19 10H20.8V6.62268L20.4578 6.45862C20.4578 6.45862 19.0797 5.80002 17.2 5.80002C15.85 5.80002 14.7414 6.33674 14.0313 7.22502C13.3211 8.11331 13 9.29924 13 10.6V11.8H11.2V16H13V24.4H3.4C2.39922 24.4 1.6 23.6008 1.6 22.6V3.40002C1.6 2.39924 2.39922 1.60002 3.4 1.60002ZM17.2 7.00002C18.4469 7.00002 19.232 7.27424 19.6 7.41956V8.80002H19C18.3086 8.80002 17.7555 8.85627 17.2914 9.15862C16.825 9.46331 16.6 10.0375 16.6 10.6V13H19.4664L19.1078 14.8H16.6V24.4H14.2V14.8H12.4V13H14.2V10.6C14.2 9.50081 14.4789 8.58674 14.9688 7.97502C15.4586 7.36331 16.15 7.00002 17.2 7.00002Z" fill="#DBDBDB"/>
</svg>
