<svg width="28" height="28" viewBox="0 0 28 28" fill="none" xmlns="http://www.w3.org/2000/svg">
<path d="M8.6 0.799988C4.29922 0.799988 0.800003 4.29921 0.800003 8.59999V19.4C0.800003 23.7008 4.29922 27.2 8.6 27.2H19.4C23.7008 27.2 27.2 23.7008 27.2 19.4V8.59999C27.2 4.29921 23.7008 0.799988 19.4 0.799988H8.6ZM8.6 1.99999H19.4C23.0516 1.99999 26 4.94843 26 8.59999V19.4C26 23.0516 23.0516 26 19.4 26H8.6C4.94844 26 2 23.0516 2 19.4V8.59999C2 4.94843 4.94844 1.99999 8.6 1.99999ZM21.2 5.59999C20.5367 5.59999 20 6.13671 20 6.79999C20 7.46327 20.5367 7.99999 21.2 7.99999C21.8633 7.99999 22.4 7.46327 22.4 6.79999C22.4 6.13671 21.8633 5.59999 21.2 5.59999ZM14 7.39999C10.3625 7.39999 7.4 10.3625 7.4 14C7.4 17.6375 10.3625 20.6 14 20.6C17.6375 20.6 20.6 17.6375 20.6 14C20.6 10.3625 17.6375 7.39999 14 7.39999ZM14 8.59999C16.9883 8.59999 19.4 11.0117 19.4 14C19.4 16.9883 16.9883 19.4 14 19.4C11.0117 19.4 8.6 16.9883 8.6 14C8.6 11.0117 11.0117 8.59999 14 8.59999Z" fill="#DBDBDB"/>
</svg>
