<svg width="154" height="60" viewBox="0 0 154 60" fill="none" xmlns="http://www.w3.org/2000/svg">
<path d="M37.5532 23.2507L37.5532 10.2624L52.7439 24.9264L52.7439 37.9146L37.5532 23.2507Z" stroke="#DBDBDB"/>
<path d="M52.7439 39.1574L52.7439 26.1692L37.5531 40.8331L37.5531 53.8214L52.7439 39.1574Z" stroke="#DBDBDB"/>
<path d="M7.61464 36.2104L7.61465 22.8409L29.8111 1.17184L29.8111 14.5413L7.61464 36.2104Z" stroke="#DBDBDB"/>
<path d="M29.7521 58.8282L29.7521 45.4587L7.5557 23.7897L7.5557 37.1591L29.7521 58.8282Z" stroke="#DBDBDB"/>
<path d="M18.4623 26.5156L18.1734 13.4066L29.2955 22.9417L29.5907 36.3391L18.4623 26.5156Z" stroke="#71BEDF"/>
<path d="M29.6083 37.1256L29.317 23.9051L18.9735 34.8096L19.1798 47.5199L29.6083 37.1256Z" stroke="#71BEDF"/>
<path d="M69.24 34.48C69.0533 34.6533 68.9267 34.9267 68.86 35.3C68.8067 35.6733 68.78 36.2267 68.78 36.96V39H60.8V38.5C61.0533 38.58 61.2867 38.62 61.5 38.62C61.7533 38.62 61.9467 38.5533 62.08 38.42C62.2267 38.2733 62.3 38.0667 62.3 37.8V25.4C62.3 25.1333 62.2267 24.9333 62.08 24.8C61.9467 24.6533 61.7533 24.58 61.5 24.58C61.2867 24.58 61.0533 24.62 60.8 24.7V24.2H65.3V24.7C65.0467 24.62 64.8133 24.58 64.6 24.58C64.3467 24.58 64.1467 24.6533 64 24.8C63.8667 24.9333 63.8 25.1333 63.8 25.4V36.5C63.8 37.2867 63.9333 37.8667 64.2 38.24C64.4667 38.6133 64.9333 38.8 65.6 38.8C66.3467 38.8 66.9067 38.7 67.28 38.5C67.6533 38.2867 67.9 38.0267 68.02 37.72C68.14 37.4 68.24 36.9533 68.32 36.38C68.3733 35.94 68.4333 35.58 68.5 35.3C68.5667 35.02 68.6867 34.7467 68.86 34.48H69.24ZM72.6783 39.2C71.9316 39.2 71.3049 38.9733 70.7983 38.52C70.2916 38.0533 70.0383 37.3933 70.0383 36.54C70.0383 35.9267 70.2449 35.4067 70.6583 34.98C71.0716 34.54 71.5249 34.24 72.0183 34.08C72.2716 34 72.5649 33.9267 72.8983 33.86C73.2449 33.78 73.4783 33.7267 73.5983 33.7C74.2649 33.5667 74.7649 33.4467 75.0983 33.34C75.4316 33.22 75.6316 33.06 75.6983 32.86C75.6983 31.9 75.5116 31.1 75.1383 30.46C74.7783 29.82 74.1716 29.5 73.3183 29.5C72.7849 29.5 72.3849 29.6933 72.1183 30.08C71.8649 30.4533 71.7383 30.96 71.7383 31.6C71.7383 31.7733 71.7716 31.9 71.8383 31.98C71.9049 32.0467 72.0583 32.08 72.2983 32.08C72.4449 32.08 72.5716 32.0467 72.6783 31.98C72.7849 31.9133 72.8383 31.8333 72.8383 31.74H73.0183V32.28H70.3983C70.3983 31.8 70.5383 31.3267 70.8183 30.86C71.0983 30.38 71.4849 29.9933 71.9783 29.7C72.4716 29.3933 73.0183 29.24 73.6183 29.24C74.4183 29.24 75.0583 29.4267 75.5383 29.8C76.0316 30.16 76.3783 30.6 76.5783 31.12C76.7916 31.6267 76.8983 32.1333 76.8983 32.64V36.98C76.8983 37.98 77.1116 38.48 77.5383 38.48C77.6716 38.48 77.7916 38.3933 77.8983 38.22C78.0183 38.0333 78.0783 37.8467 78.0783 37.66H78.2783C78.2783 38.1533 78.1249 38.5333 77.8183 38.8C77.5249 39.0667 77.1849 39.2 76.7983 39.2C76.3449 39.2 76.0449 39 75.8983 38.6C75.7649 38.2 75.6983 37.64 75.6983 36.92V36C75.6983 36.1867 75.6049 36.54 75.4183 37.06C75.2449 37.58 74.9316 38.0667 74.4783 38.52C74.0249 38.9733 73.4249 39.2 72.6783 39.2ZM73.1383 38.64C73.5916 38.64 74.0116 38.46 74.3983 38.1C74.7849 37.74 75.0916 37.3133 75.3183 36.82C75.5449 36.3267 75.6583 35.9133 75.6583 35.58V33.3C75.6583 33.34 75.5916 33.38 75.4583 33.42C75.3249 33.46 75.1583 33.5 74.9583 33.54C74.0916 33.7667 73.4583 33.9533 73.0583 34.1C72.4316 34.3267 71.9716 34.6467 71.6783 35.06C71.3849 35.46 71.2383 35.9133 71.2383 36.42C71.2383 37.0067 71.3983 37.5267 71.7183 37.98C72.0516 38.42 72.5249 38.64 73.1383 38.64ZM87.4319 37.8C87.4319 38.1333 87.4652 38.3867 87.5319 38.56C87.5985 38.72 87.7519 38.8 87.9919 38.8C88.0985 38.8 88.2652 38.7667 88.4919 38.7V39H85.0919V38.7C85.3185 38.7667 85.4852 38.8 85.5919 38.8C85.8052 38.8 85.9385 38.72 85.9919 38.56C86.0585 38.4 86.0919 38.1467 86.0919 37.8V32.44C86.0919 31.52 85.8985 30.8 85.5119 30.28C85.1385 29.76 84.6452 29.5 84.0319 29.5C83.4452 29.5 82.9719 29.7333 82.6119 30.2C82.2652 30.6533 82.0185 31.1933 81.8719 31.82C81.7385 32.4467 81.6719 33.0467 81.6719 33.62V37.8C81.6719 38.1467 81.6985 38.4 81.7519 38.56C81.8185 38.72 81.9585 38.8 82.1719 38.8C82.2785 38.8 82.4452 38.7667 82.6719 38.7V39H79.2719V38.7C79.4985 38.7667 79.6652 38.8 79.7719 38.8C80.0119 38.8 80.1652 38.72 80.2319 38.56C80.2985 38.3867 80.3319 38.1333 80.3319 37.8V30.7C80.1319 30.7667 79.9185 30.8 79.6919 30.8C79.5985 30.8 79.4585 30.7867 79.2719 30.76V30.22H79.4519C79.4519 30.3133 79.4985 30.3933 79.5919 30.46C79.6985 30.5267 79.8185 30.56 79.9519 30.56C80.1385 30.56 80.3052 30.4867 80.4519 30.34C80.5985 30.1933 80.7785 29.9667 80.9919 29.66H81.3519L81.3719 31.28H81.6519C81.8919 30.68 82.2185 30.1933 82.6319 29.82C83.0585 29.4333 83.5852 29.24 84.2119 29.24C84.7185 29.24 85.2185 29.3733 85.7119 29.64C86.2185 29.8933 86.6319 30.2667 86.9519 30.76C87.2719 31.24 87.4319 31.8 87.4319 32.44V37.8ZM93.1867 39.2C91.9467 39.2 91.0534 38.7 90.5067 37.7C89.9601 36.6867 89.6867 35.4 89.6867 33.84C89.6867 33.0133 89.8201 32.2533 90.0867 31.56C90.3534 30.8667 90.7467 30.3133 91.2667 29.9C91.8001 29.4733 92.4467 29.26 93.2067 29.26C93.8467 29.26 94.4001 29.4467 94.8667 29.82C95.3334 30.1933 95.7067 30.68 95.9867 31.28H96.3067L96.3267 26.06V24.04C96.1267 24.1067 95.9134 24.14 95.6867 24.14C95.5934 24.14 95.4534 24.1267 95.2667 24.1V23.56H95.4467C95.4467 23.6533 95.4934 23.7333 95.5867 23.8C95.6934 23.8667 95.8134 23.9 95.9467 23.9C96.1467 23.9 96.3467 23.8133 96.5467 23.64C96.7601 23.4533 96.9534 23.24 97.1267 23H97.4067V38.22C97.4334 38.6067 97.5867 38.8 97.8667 38.8C98.0267 38.8 98.2001 38.7667 98.3867 38.7V39H96.6867L96.2267 37.54H95.8667C95.3201 38.6467 94.4267 39.2 93.1867 39.2ZM93.5467 38.84C94.5067 38.84 95.1667 38.4067 95.5267 37.54C95.8867 36.66 96.0667 35.5333 96.0667 34.16C96.0667 33.52 95.9734 32.84 95.7867 32.12C95.6134 31.4 95.3334 30.7867 94.9467 30.28C94.5601 29.76 94.0801 29.5 93.5067 29.5C92.6801 29.5 92.0667 29.9467 91.6667 30.84C91.2801 31.7333 91.0867 32.8333 91.0867 34.14C91.0867 35.4733 91.2801 36.5933 91.6667 37.5C92.0534 38.3933 92.6801 38.84 93.5467 38.84ZM117.814 24.7C117.547 24.62 117.314 24.58 117.114 24.58C116.86 24.58 116.66 24.6533 116.514 24.8C116.38 24.9333 116.314 25.1333 116.314 25.4V37.8C116.314 38.0667 116.38 38.2733 116.514 38.42C116.66 38.5533 116.86 38.62 117.114 38.62C117.327 38.62 117.56 38.58 117.814 38.5V39H113.314V38.5C113.58 38.58 113.814 38.62 114.014 38.62C114.267 38.62 114.46 38.5533 114.594 38.42C114.74 38.2733 114.814 38.0667 114.814 37.8V30.94H107.394V37.8C107.394 38.0667 107.46 38.2733 107.594 38.42C107.74 38.5533 107.947 38.62 108.214 38.62C108.414 38.62 108.64 38.58 108.894 38.5V39H104.394V38.5C104.647 38.58 104.88 38.62 105.094 38.62C105.347 38.62 105.54 38.5533 105.674 38.42C105.82 38.2733 105.894 38.0667 105.894 37.8V25.4C105.894 25.1333 105.82 24.9333 105.674 24.8C105.54 24.6533 105.347 24.58 105.094 24.58C104.88 24.58 104.647 24.62 104.394 24.7V24.2H108.894V24.7C108.64 24.62 108.407 24.58 108.194 24.58C107.94 24.58 107.74 24.6533 107.594 24.8C107.46 24.9333 107.394 25.1333 107.394 25.4V30.54H114.814V25.4C114.814 25.1333 114.74 24.9333 114.594 24.8C114.46 24.6533 114.267 24.58 114.014 24.58C113.814 24.58 113.58 24.62 113.314 24.7V24.2H117.814V24.7ZM123.003 39.2C121.589 39.2 120.569 38.7533 119.943 37.86C119.329 36.9533 119.023 35.74 119.023 34.22C119.023 32.82 119.336 31.6467 119.963 30.7C120.589 29.74 121.603 29.26 123.003 29.26C124.403 29.26 125.416 29.74 126.043 30.7C126.683 31.6467 127.003 32.82 127.003 34.22C127.003 35.74 126.689 36.9533 126.063 37.86C125.436 38.7533 124.416 39.2 123.003 39.2ZM123.003 38.96C123.909 38.96 124.569 38.5267 124.983 37.66C125.396 36.78 125.603 35.6333 125.603 34.22C125.603 32.9 125.389 31.7867 124.963 30.88C124.536 29.96 123.883 29.5 123.003 29.5C122.123 29.5 121.469 29.96 121.043 30.88C120.629 31.7867 120.423 32.9 120.423 34.22C120.423 35.6333 120.629 36.78 121.043 37.66C121.456 38.5267 122.109 38.96 123.003 38.96ZM131.713 39.2C131.22 39.2 130.76 39.0733 130.333 38.82C129.906 38.5533 129.566 38.18 129.313 37.7C129.073 37.22 128.953 36.6533 128.953 36L128.933 30.58L128.633 30.6C128.553 30.6 128.406 30.5867 128.193 30.56V30.02H128.373C128.373 30.1133 128.42 30.1933 128.513 30.26C128.62 30.3267 128.74 30.36 128.873 30.36C129.06 30.36 129.226 30.2867 129.373 30.14C129.52 29.9933 129.7 29.7667 129.913 29.46H130.273V29.62L130.253 36.24C130.253 37.2 130.38 37.8933 130.633 38.32C130.886 38.7333 131.306 38.94 131.893 38.94C132.493 38.94 133.006 38.7467 133.433 38.36C133.86 37.96 134.173 37.46 134.373 36.86C134.586 36.26 134.693 35.6467 134.693 35.02V30.58L134.393 30.6C134.313 30.6 134.166 30.5867 133.953 30.56V30.02H134.133C134.133 30.1133 134.18 30.1933 134.273 30.26C134.38 30.3267 134.5 30.36 134.633 30.36C134.82 30.36 134.986 30.2867 135.133 30.14C135.28 29.9933 135.46 29.7667 135.673 29.46H136.033V37.8C136.033 38.1467 136.06 38.4 136.113 38.56C136.18 38.72 136.32 38.8 136.533 38.8C136.64 38.8 136.806 38.7667 137.033 38.7V39H134.853V37.02H134.653C134.346 37.6467 133.946 38.1667 133.453 38.58C132.96 38.9933 132.38 39.2 131.713 39.2ZM141.241 39.2C140.135 39.2 139.288 38.7733 138.701 37.92L138.521 39H138.261V35.42H138.621C138.621 36.5667 138.808 37.42 139.181 37.98C139.555 38.5267 140.121 38.8 140.881 38.8C141.508 38.8 141.975 38.5867 142.281 38.16C142.588 37.72 142.741 37.16 142.741 36.48C142.741 35.9333 142.548 35.5 142.161 35.18C141.788 34.86 141.235 34.5267 140.501 34.18C139.995 33.94 139.595 33.7267 139.301 33.54C139.008 33.3533 138.755 33.12 138.541 32.84C138.341 32.56 138.241 32.22 138.241 31.82C138.241 31.0067 138.495 30.38 139.001 29.94C139.521 29.4867 140.175 29.26 140.961 29.26C141.428 29.26 141.868 29.3733 142.281 29.6C142.708 29.8133 142.955 30.04 143.021 30.28L143.161 29.26H143.421V31.88H143.121C143.121 31.2933 142.941 30.7667 142.581 30.3C142.221 29.8333 141.748 29.6 141.161 29.6C140.081 29.6 139.541 30.1933 139.541 31.38C139.541 31.7933 139.695 32.1267 140.001 32.38C140.308 32.6333 140.795 32.9333 141.461 33.28C142.021 33.5733 142.475 33.84 142.821 34.08C143.168 34.3067 143.461 34.6067 143.701 34.98C143.955 35.3533 144.081 35.8067 144.081 36.34C144.081 36.7933 143.961 37.24 143.721 37.68C143.481 38.12 143.141 38.4867 142.701 38.78C142.275 39.06 141.788 39.2 141.241 39.2ZM149.463 39.2C148.196 39.2 147.249 38.78 146.623 37.94C145.996 37.0867 145.683 35.8467 145.683 34.22C145.683 33.3667 145.816 32.5667 146.083 31.82C146.349 31.06 146.763 30.4467 147.323 29.98C147.896 29.5 148.596 29.26 149.423 29.26C150.769 29.26 151.729 29.6733 152.303 30.5C152.876 31.3133 153.163 32.2933 153.163 33.44C153.163 33.64 153.149 33.9 153.123 34.22L153.103 34.4H147.083C147.136 37.3867 147.969 38.88 149.583 38.88C150.303 38.88 150.836 38.66 151.183 38.22C151.529 37.78 151.703 37.28 151.703 36.72C151.703 36.4933 151.643 36.3267 151.523 36.22C151.416 36.1133 151.276 36.06 151.103 36.06C150.969 36.06 150.849 36.1 150.743 36.18C150.649 36.2467 150.603 36.3333 150.603 36.44H150.423V35.9H152.963C153.003 36.4067 152.876 36.9133 152.583 37.42C152.303 37.9267 151.889 38.3467 151.343 38.68C150.796 39.0133 150.169 39.1867 149.463 39.2ZM151.243 34.1C151.483 34.1 151.623 34.08 151.663 34.04C151.716 33.9867 151.749 33.8667 151.763 33.68C151.776 33.5333 151.783 33.3133 151.783 33.02C151.783 32.0067 151.596 31.1667 151.223 30.5C150.849 29.8333 150.223 29.5 149.343 29.5C148.489 29.5 147.903 29.92 147.583 30.76C147.263 31.6 147.096 32.7133 147.083 34.1H151.243Z" fill="#DBDBDB"/>
</svg>
