<svg width="28" height="25" viewBox="0 0 28 25" fill="none" xmlns="http://www.w3.org/2000/svg">
<path d="M25.6273 0.592948C25.3344 0.604667 25.0484 0.686698 24.793 0.789823C24.5398 0.890604 23.0773 1.51404 20.9187 2.43748C18.7601 3.36092 15.9547 4.56326 13.1726 5.75389C7.60858 8.13748 2.14296 10.4812 2.14296 10.4812L2.1828 10.4672C2.1828 10.4672 1.85234 10.5773 1.51718 10.8094C1.35077 10.9265 1.1703 11.0765 1.02265 11.2969C0.877336 11.5172 0.769523 11.8265 0.809367 12.1547C0.952336 13.3101 2.14765 13.6383 2.14765 13.6383L2.15468 13.6406L7.49609 15.4687C7.63202 15.9234 9.11562 20.8758 9.4414 21.9258C9.62187 22.5047 9.79062 22.8398 9.9664 23.0672C10.0555 23.182 10.1469 23.2687 10.25 23.3344C10.2898 23.3601 10.332 23.3789 10.3742 23.3976C10.3742 23.3976 10.3766 23.3953 10.3766 23.3976C10.3812 23.3976 10.3859 23.4 10.393 23.4023L10.3789 23.3976C10.3883 23.4023 10.3976 23.4094 10.407 23.4117C10.4258 23.4187 10.4375 23.4187 10.4633 23.4234C11.075 23.6367 11.5812 23.2406 11.5812 23.2406L11.6023 23.2242L14.8836 20.182L20.2086 24.3328L20.2742 24.3633C21.207 24.7781 22.0484 24.5461 22.5172 24.1664C22.9836 23.7867 23.1664 23.2969 23.1664 23.2969L23.1875 23.2453L27.0992 2.85232C27.2 2.39529 27.2141 2.00154 27.1203 1.64529C27.0242 1.2867 26.7945 0.977323 26.5086 0.80623C26.2203 0.635136 25.918 0.578886 25.6273 0.592948ZM25.6578 1.8117C25.7773 1.80701 25.8641 1.81873 25.8922 1.83514C25.9203 1.85389 25.932 1.85154 25.9601 1.95232C25.9859 2.05076 26 2.26404 25.9273 2.59451L25.925 2.60154L22.0344 22.8773C22.025 22.8984 21.943 23.0859 21.7601 23.2359C21.5703 23.3906 21.3594 23.5101 20.8039 23.2758L14.9797 18.7336L14.8156 18.6047L14.8133 18.6094L13.0719 17.3015L22.857 5.78904C23.0117 5.60857 23.0445 5.35545 22.9414 5.14217C22.8406 4.92654 22.6226 4.79295 22.3859 4.79998C22.2711 4.80232 22.1609 4.83748 22.0672 4.90076L7.90624 14.3414L2.5578 12.5086C2.5578 12.5086 2.02577 12.2133 1.99999 12.007C1.99765 11.9976 1.99296 12.007 2.02109 11.9648C2.04687 11.925 2.11718 11.8547 2.2039 11.7937C2.37734 11.6742 2.57655 11.5992 2.57655 11.5992L2.59765 11.5922L2.6164 11.5851C2.6164 11.5851 8.08437 9.23904 13.6461 6.85545C16.4281 5.66482 19.2336 4.46482 21.3922 3.54139C23.5484 2.61795 25.107 1.95467 25.2406 1.90076C25.3906 1.84217 25.5383 1.81639 25.6578 1.8117ZM19.168 8.27576L11.7476 17.0062L11.743 17.0109C11.7312 17.025 11.7195 17.039 11.7101 17.0531C11.6984 17.0695 11.6867 17.0883 11.6773 17.1047C11.6351 17.175 11.6094 17.2547 11.6 17.3344C11.5976 17.3367 11.5976 17.339 11.6 17.339L10.632 21.6867C10.6156 21.6398 10.6039 21.6234 10.5875 21.5672C10.2805 20.5804 8.88124 15.9094 8.68671 15.2648L19.168 8.27576ZM12.5844 18.4383L13.918 19.439L11.9586 21.2554L12.5844 18.4383Z" fill="#DBDBDB"/>
</svg>
